<?xml version="1.0" encoding="UTF-8"?>
<svg id="Layer_2" data-name="Layer 2" xmlns="http://www.w3.org/2000/svg" viewBox="0 0 1669.999999999999091 390">
  <defs>
    <style>
      .cls-1 {
        fill: currentColor;
      }
    </style>
  </defs>
  <g>
    <path class="cls-1" d="M185.719928099797471,351.203109455985214c-47.812879475340196-42.256520051650114-88.101568724179742-74.079147678339723-152.562411504869488-82.369775324000329V38.796890544014786c57.397031431769392.360904236780698,114.314459533089575,21.976923085439921,152.562411504869488,65.709315754770614v137.467003419459616l-9.303979291299584.115577479829881-32.303997292749955-35.308833573640186v-85.116551903169238c-19.325879122060542-17.985401196800012-43.609463698870059-30.754985277880223-69.346458336780415-36.488245090310556v149.767383488010637c12.724665983399973,3.221164398149995,58.673692109439799,18.396992382509779,88.723836868420221,59.311420246669513l12.926618761110149-17.780872914489919h9.303979291299584v74.730022004840066Z"/>
    <path class="cls-1" d="M207.910666116387802,351.203109455985214c47.812879475340196-42.256520051650114,88.101568724179742-74.079147678339723,152.562411504879492-82.369775324000329V38.796890544014786c-57.397031431779396.360904236780698-114.31445953309958,21.976923085439921-152.562411504879492,65.709315754770614v137.467003419459616l9.303979291319592.115577479829881,32.303997292729946-35.308833573640186v-85.116551903169238c19.325879122060542-17.985401196800012,43.609463698870059-30.754985277880223,69.346458336780415-36.488245090310556v149.767383488010637c-12.724665983399973,3.221164398149995-58.673692109439799,18.396992382509779-88.723836868420221,59.311420246669513l-12.92661876109014-17.780872914489919h-9.303979291319592v74.730022004840066Z"/>
  </g>
  <g>
    <g>
      <path class="cls-1" d="M928.283852390287393,231.881620596249377v-35.450100210472556c0-35.014912831269612-17.150957452313378-59.786936034180144-47.639938389722374-59.786936034180144-18.340803809160207,0-29.535199828131226,9.051779538917799-36.204843436969895,22.3910246321866v-55.500060221722379l-39.058014627349621-.000126373262901v3.661328180974124l12.856457119869447,15.863887934942795v128.156174950505374l39.009824291299083.001390105844621v-3.661286056551944l-12.808266783818908-15.804534627675821v-35.320862491060325c0-18.816599128888811,9.527532734211491-34.061089597586943,28.345269222429124-34.061089597586943,18.816641253320995,0,29.297955096782971,15.244490468698132,29.297955096782971,34.061089597586943v54.785293069443469l38.905102984090263.001390105844621v-3.661286056551944l-12.703545476610088-15.67529690826359Z"/>
      <path class="cls-1" d="M607.278840793830568,196.431520385776821c0-35.014912831269612-8.099177913394669-59.786936034180144-41.923064904063722-59.786936034180144-35.629339615992649,0-34.459797229381365,40.190656022353323-35.252747304502918,43.756488144031209.236907735994464-14.340079179239183-.683258086390197-43.756488144031209-37.634967483409127-43.756488144031209-23.782857581159988,0-29.917605309554347,23.281619111976397-30.96532387458501,34.630990870765345v-33.202046308078934l-39.04824176198963-.029824089093381v3.661286056552854l12.846684254524007,15.851924599762242v93.659897973715488l39.057930378519814.001390105844621v-3.661286056551944l-12.856372871054191-15.863803686087522v-35.261593432648624c0-20.484599772968977,7.622329483190697-34.538022276632546,23.820011319281548-34.538022276632546,18.578722531246967,0,22.866735703046288,12.862354538630825,22.866735703046288,34.538022276632546v54.785293069443469l39.020439645042643.001390105844621v-3.661286056551944l-12.8194718794457-15.818182939634426v-35.30721417910172c0-20.484599772968977,7.622329483190697-34.538022276632546,23.820011319281548-34.538022276632546,18.340803809160207,0,22.866735703033555,12.862354538630825,22.866735703033555,34.538022276632546v54.785293069443469l39.060120848340375.001390105844621v-3.661286056551944l-12.858479092019479-15.866499648962417v-35.258897469773729Z"/>
      <path class="cls-1" d="M701.52329933873898,192.853598555680037c0,.464548099692365-.011963335166001.929011950532185-.023926670346555,1.381638839440711-.476342937163281,18.17597095516885-10.481482341145238,32.683410453599208-30.467918727579672,32.683410453599208-20.963133179975557,0-27.156770846993822-13.816599016499822-27.156770846993822-34.06504929303992v-54.778047669260559h-26.191953139803445v54.778047669260559c0,34.779732196488112,11.48606550049044,57.923393834183116,45.249377575717517,59.792538581991721,22.369077809542432,1.238373688291176,47.387613116134162-2.998500438082374,59.120359217964506-28.074493453044852-2.760665964877262,40.94982231292397-34.941363594605718,38.972881175282055-52.926721550944421,38.972881175282055l-23.278965273550057,25.730101002969604,23.278965273550057-.002611714017803c35.017861540654849,0,58.601470616957158-13.51309257307912,58.601470616957158-59.792496457583184v-91.403966804858101h-26.203916474971265v54.778047669260559Z"/>
      <path class="cls-1" d="M775.916372386559487,192.858274366267324v-35.252199687065513h11.909668664276978v-19.532545764918723h-11.909668664276978v-34.53798015222219l-39.063912046096448,50.409197736192255v3.661328180948658h12.862354538630825v35.252199687065513c0,34.776446491746356,23.580913113455608,59.786893909769788,58.595825944710668,59.786893909769788v-25.724624828431843c-19.055065468410248,0-32.394268437245046-15.244532593118493-32.394268437245046-34.062269081337945Z"/>
    </g>
    <g>
      <path class="cls-1" d="M958.939579273502204,250.845553877390557v-102.435816526191047h-11.656651809589675v-7.324287572857429h11.586826158885742l.068767686309002-2.095827485451991c.805110911865995-24.657447395199597,14.647517181305375-36.9621024025937,42.297416894836715-37.565671095385369v10.563245597448258c-12.168706581420338.431120494879906-30.368868233281319,4.79786857473573-31.743163994831775,26.796651421231218l-.143883159013058,2.301601562157884h31.887047153844833v7.324287572857429h-31.74739585244788v102.435816526191047h-10.548963077993903Z"/>
      <path class="cls-1" d="M1016.185549533377525,250.845553877390557v-109.760104099048476h10.547905113586239v109.760104099048476h-10.547905113586239ZM1021.459502090177011,115.986510673084013c-4.069989064399124,0-7.258693779784153-3.29714606683865-7.258693779784153-7.50678643264655,0-4.420704264499363,3.120994993481872-7.754350103315119,7.258693779784153-7.754350103315119,4.137698786274996,0,7.258693779769601,3.333645838815755,7.258693779769601,7.754350103315119,0,4.2096403658079-3.188704715385029,7.50678643264655-7.258693779769601,7.50678643264655Z"/>
      <path class="cls-1" d="M1135.432949430438839,250.845553877390557v-54.879787558417775c0-31.375521364227097-6.117150187234984-49.540241208558655-37.386346128792866-49.540241208558655-28.262461103781789,0-45.819380397679652,18.982526329075881-45.819380397679652,49.540241208558655v54.879787558417775h-10.548963077992994v-109.760104099048476h10.548963077992994v19.437770736906714s7.50563736508002-24.646129500631105,49.540241208558655-24.646129500631105c36.980087797459419,0,44.214448395906857,22.032108725236867,44.214448395906857,60.088675304355093v54.879787558417775h-10.548963077992994Z"/>
      <path class="cls-1" d="M1214.60148378906797,256.053912641104034c-32.135668788920611,0-56.368343475659913-25.832316866461952-56.368343475659913-60.088146322131252,0-34.256358437879499,24.232674686739301-60.088675304355093,56.368343475659913-60.088675304355093,42.432830671888951,0,53.260044055029994,28.836935775461825,53.260044055029994,28.836935775461825v-23.628577011737434h10.548963077979806v109.760104099048476h-10.548963077979806v-23.628048029526326s-12.17228967652045,28.836406793239803-53.260044055029994,28.836406793239803ZM1218.322344599946973,146.425525110414128c-27.316640926098444,0-49.541299172966319,22.223600282485677-49.541299172966319,49.540241208558655,0,27.316640926072068,22.224658246867875,49.540241208545012,49.541299172966319,49.540241208545012,27.315582961678047,0,49.539183244150991-22.223600282472944,49.539183244150991-49.540241208545012,0-27.316640926072978-22.223600282472944-49.540241208558655-49.539183244150991-49.540241208558655Z"/>
      <path class="cls-1" d="M1387.685518341644638,250.845553877390557v-54.879787558417775c0-31.375521364227097-6.117150187234984-49.540241208558655-37.386346128806053-49.540241208558655-28.263519068175356,0-45.820438362062305,18.982526329075881-45.820438362062305,49.540241208558655v54.879787558417775h-10.547905113610796v-109.760104099048476h10.547905113610796v19.437770736906714s7.278947703955509-24.646129500631105,49.541299172941308-24.646129500631105c36.980087797458054,0,44.214448395932322,22.032108725236867,44.214448395932322,60.088675304355093v54.879787558417775h-10.548963078005272Z"/>
      <path class="cls-1" d="M1471.000215201795527,256.053912641104034c-34.256887420088788,0-60.089204286552103-25.832316866461952-60.089204286552103-60.088146322131252,0-34.256358437879499,25.832316866463316-60.088675304355093,60.089204286552103-60.088675304355093,16.142420884965759,0,30.999415018396576,5.816688296356915,42.047737295342813,16.419078576795982l-6.53504612703864,9.008037922726544c-9.272000041679803-9.487295798013292-22.065963586187991-14.878682403726089-35.512691168304173-14.878682403726089-27.316640926085711,0-49.541299172953586,22.223600282485677-49.541299172953586,49.540241208558655,0,27.316640926072068,22.224658246867875,49.540241208545012,49.541299172953586,49.540241208545012,13.445669617708518,0,26.239633162216705-5.391386605700973,35.512691168304173-14.879211385924464l6.53504612703864,9.008037922740186c-11.047264312551761,10.602390280438158-25.90425844596848,16.419078576770517-42.047737295342813,16.419078576770517Z"/>
      <path class="cls-1" d="M1582.233534734207751,255.805819988238909c-31.461745463200714,0-63.311763862873704-20.554661434256559-63.311763862873704-59.840053669266126,0-18.436087714099813,6.216598841273026-34.002975962990604,17.977989126913144-45.017443378985263,10.548963077992539-9.878742627718566,24.711932562026504-15.319324578234045,39.87785230156851-15.319324578234045,15.763669628149728,0,30.406954951851731,5.867999569961285,41.234162668251884,16.522759088425119,11.908447337877078,11.719600691651067,18.396943031124465,28.486220575337938,18.830708437002613,48.591776119849783h-106.380436808665308v2.166711100551765c0,26.666521799477778,26.641659635986343,44.579446115514656,51.523924467135203,44.579446115514656,19.071924321238839,0,35.211171313007071-9.734859468682771,44.700054057626403-26.826803406764157l5.367053424391997,5.367053424391088c-5.724645393147512,14.629002804246738-21.61950260744743,29.77587918451718-49.819543811350741,29.77587918451718ZM1577.769982911325314,144.936969193186087c-24.872743151532632,0-43.679118407226269,17.713498025774243-46.797997471893268,44.077442005534976l-.286708353642098,2.421151539862876h94.441308503023265l-.315273392558083-2.443897774553079c-3.399239631888122-26.350719424712224-22.304005577212592-44.054695770844774-47.041329284929816-44.054695770844774Z"/>
    </g>
  </g>
</svg>