<?xml version="1.0" encoding="UTF-8"?>
<!-- Created with Inkscape (http://www.inkscape.org/) -->
<svg width="880.69" height="915.92" version="1.1" viewBox="0 0 880.69 915.92" xmlns="http://www.w3.org/2000/svg">
 <g transform="translate(-671.59 -456.11)">
  <path fill="rgb(197, 197, 197)" d="m1077.8 894.79c-115.9-54.169-221.06-100.16-336.45-155.48-0.22227 0.22227-0.7899 99.276-1.046 244.57l-2.5297 350.16-66.169-40.536 0.0993-666.94 59.789 30.972c79.646 41.259 284.36 135.03 317.27 150.62 36.595 17.339 42.231 19.157 59.725 19.266 19.907 0.1244-4.8966 10.543 216.5-90.938l226.32-110.07c2.7716 225.62-1.3149 421.64-0.2221 666.7l-69.669 40.924 0.2973-592.7-339.69 153.17-0.036 477.53h-63.689c-2.5063 0-0.5063-477.24-0.5063-477.24zm26.539-91.775c-15.255-3.2156-25.652-16.468-25.662-32.713 0-6.0769 0.4918-8.209 3.1775-13.664 13.183-26.779 52.017-23.363 60.537 5.3244 2.0254 6.8205 2.0254 11.26 0 18.081-4.8533 16.343-21.584 26.443-38.052 22.972zm-96.844-50.948c-22-10.886-63.816-31.563-92.925-45.948-29.108-14.385-92.44-45.797-140.74-69.805l-87.813-43.649 2.9471-1.7923c6.423-3.906 11.027-14.565 11.027-25.529 0-3.4876 0.24158-6.3411 0.53684-6.3411s4.6828 2.1892 9.75 4.8649 22.713 11.741 39.213 20.144c93.847 47.797 193.58 100.01 234.5 122.77 31.423 17.478 47.793 30.548 57.96 46.279 4.8736 7.5404 8.7273 19.101 6.2899 18.869-0.4125-0.0393-18.75-8.9781-40.75-19.864zm166.1 16.186c3.0103-16.425 20.704-35.426 48.903-52.517 24.854-15.063 141.1-76.29 252-132.72 17.6-8.9564 35.261-18.023 39.246-20.147s7.473-3.8628 7.75-3.8628 0.5089 2.5875 0.5155 5.75c0.023 10.907 3.9407 20.72 10.242 25.651l3.1112 2.4349-84.932 42.357c-46.713 23.297-107.66 53.572-135.43 67.278-27.775 13.707-70.75 34.956-95.5 47.22-24.75 12.265-45.358 22.301-45.795 22.303-0.4374 2e-3 -0.4861-1.6833-0.1081-3.7458zm-120.37-44.233c-2.3495-1.0664-8.8745-6.139-14.5-11.273-12.621-11.517-15.875-13.908-42.728-31.399-34.481-22.459-58.043-35.893-122-69.554-44.188-23.257-128.69-66.483-135.06-69.087-1.141-0.46654-1.025-0.83813 0.56242-1.801 7.956-4.8262 12.743-14.516 12.905-26.121 0.052-3.7215 0.32574-6.7698 0.6083-6.774 1.4335-0.0212 96.869 52.81 144.99 80.262 87.001 49.635 119.63 70.887 141.16 91.931 16.843 16.464 27.66 36.727 23.248 43.55-1.7704 2.7381-3.6179 2.7919-9.1803 0.26721zm107.52 0.90269c-4.2658-2.4846-0.8719-15.085 7.3907-27.438 14.97-22.382 42.632-43.139 110.86-83.189 52.707-30.939 187.56-106.3 190.21-106.29 0.1594 4.2e-4 0.3791 3.2629 0.4882 7.25 0.3206 11.71 4.3143 20.122 11.729 24.705l3.4706 2.1449-35.199 17.557c-69.975 34.902-150.9 77.649-187.4 98.992-7.8078 4.5657-26.05 16.124-40.537 25.685-20.241 13.358-29.05 19.857-38.037 28.064-7.558 6.9014-13.162 11.197-15.839 12.142-4.841 1.708-4.8612 1.7091-7.1408 0.38136zm-70.821-17.619c-1.9143-0.29733-3.4975-1.983-6.1989-6.6002-6.313-10.79-19.934-30.151-28.446-40.435-13.481-16.286-28.209-29.61-47.284-42.777-4.675-3.2271-13.9-9.7798-20.5-14.561-25.117-18.197-120.1-72.432-177.09-101.11l-22.085-11.116 3.8136-3.4454c2.0975-1.895 4.7296-4.9274 5.8491-6.7388 2.9676-4.8018 4.3005-13.247 3.0039-19.032-0.58501-2.6104-0.90917-4.9008-0.72036-5.0896 0.18881-0.18882 8.1916 4.0656 17.784 9.4542 9.5924 5.3886 38.591 21.659 64.441 36.157 102.1 57.263 139.99 82.869 172.18 116.37 17.721 18.443 29.407 34.536 38.764 53.384 6.6496 13.394 11.94 28.579 11.11 31.887-0.9422 3.7542-5.9482 5.0067-14.625 3.6591zm30.351-0.32111c-3.6862-1.4833-3.636-4.7633 0.2433-15.908 9.4-27.005 25.148-50.79 50.432-76.171 18.178-18.247 34.014-30.853 61.794-49.188 34.21-22.58 47.424-30.478 103.25-61.72 18.975-10.619 44.625-25.019 57-32s23.893-13.411 25.596-14.289l3.0963-1.5962-0.4776 7.4417c-0.6788 10.579 0.9946 15.677 7.273 22.159l5.1058 5.2714-13.547 6.5676c-22.267 10.795-67.323 35.208-113.55 61.523-47.571 27.082-59.102 34.436-98 62.5-25.974 18.74-45.994 40.763-65.722 72.3-8.3565 13.359-8.917 13.825-16.778 13.948-1.925 0.0302-4.499-0.34707-5.7201-0.83839z"/>
 </g>
</svg>
